<svg xmlns="http://www.w3.org/2000/svg" viewBox="0 0 128 128" width="128" height="128" role="img" aria-label="Loop Booking"><rect width="128" height="128" rx="29" fill="#0a0d18"/><path d="M95.1 32.9 A44 44 0 1 1 45.4 24.1" fill="none" stroke="#5ad0f0" stroke-width="9" opacity=".22" transform="translate(64 64) scale(.94) translate(-64 -64)"/><path d="M42 46 h44 a6 6 0 0 1 6 6 v34 a6 6 0 0 1 -6 6 h-44 a6 6 0 0 1 -6 -6 v-34 a6 6 0 0 1 6 -6 Z M36 60 h56 M50 38 v14 M78 38 v14" fill="none" stroke="#5ad0f0" stroke-width="7" stroke-linejoin="round" stroke-linecap="round" transform="translate(64 64) scale(.82) translate(-64 -64)"/></svg>
